<svg xmlns="http://www.w3.org/2000/svg" width="24" height="24" viewBox="0 0 448 512">
<path fill="#25D366" d="M380.9 97.1C339-6.7 214.3-33.5 111.4 8.4 8.5 50.2-33.3 174.9 8.6 277.8L0 512l238.4-62.5c98.4 32.8 206.6-18.3 239.4-116.7 32.8-98.4-18.3-206.6-96.9-235.7z"></path>
<path fill="#fff" d="M306 272c-5-2-30-15-35-17-5-2-8-2-11 2l-10 12c-3 3-6 4-11 1-32-16-53-29-74-66-6-10 6-10 17-35 2-4 1-7-1-10l-16-39c-4-10-8-9-11-9h-9c-3 0-9 1-13 6-5 5-17 16-17 40s18 48 21 51c3 4 36 56 88 79 33 14 45 15 61 13 10-2 30-12 34-24 4-11 4-20 3-22-2-2-5-3-10-5z"></path>
</svg>